# 3ds Max Wavefront OBJ Exporter v0.97b - (c)2007 guruware
# File Created: 28.11.2018 15:55:29

mtllib horn.mtl

#
# object Box001
#

v  -0.2767 0.0000 0.1055
v  0.2333 0.0000 0.1055
v  0.0003 1.0000 0.0004
v  0.2920 0.0000 0.0023
v  0.0396 0.0000 -0.4226
v  -0.0830 0.0000 -0.4226
v  -0.3354 0.0000 0.0023
v  0.2820 0.0000 0.0991
v  -0.3254 0.0000 0.0991
v  -0.0523 0.0000 -0.4613
v  0.3080 0.0000 0.0797
v  0.3113 0.0000 0.0475
v  -0.3514 0.0000 0.0797
v  -0.3547 0.0000 0.0475
v  -0.0217 0.0000 -0.4742
v  0.0090 0.0000 -0.4613
# 16 vertices

vn -0.0761 0.1250 0.9892
vn 0.0744 0.1214 0.9898
vn 0.0201 0.9951 0.0973
vn 0.8652 0.2515 -0.4339
vn 0.7869 0.2664 -0.5567
vn -0.7799 0.2978 -0.5505
vn -0.8567 0.2868 -0.4288
vn 0.3983 0.2005 0.8951
vn -0.4016 0.2185 0.8893
vn -0.5367 0.3768 -0.7549
vn 0.8391 0.2944 0.4574
vn 0.9484 0.2888 -0.1308
vn -0.8314 0.3280 0.4486
vn -0.9364 0.3264 -0.1286
vn -0.0038 0.4288 -0.9034
vn 0.5374 0.3573 -0.7639
# 16 vertex normals

vt 0.1600 0.0000 0.0000
vt 0.8400 0.0000 0.0000
vt 0.5000 1.0000 0.0000
vt 0.1634 0.0000 0.0000
vt 0.8366 0.0000 0.0000
vt 0.5004 1.0000 0.0000
vt 0.0425 -0.0000 0.0000
vt 0.0727 -0.0000 0.0000
vt 0.9121 1.0000 0.0000
vt 0.9273 0.0000 0.0000
vt 0.9575 0.0000 0.0000
vt 0.9285 -0.0000 0.0000
vt 0.9591 -0.0000 0.0000
vt 0.1030 -0.0000 0.0000
vt 0.1332 -0.0000 0.0000
vt 0.8970 0.0000 0.0000
vt 0.8668 0.0000 0.0000
vt 0.8979 -0.0000 0.0000
vt 0.8672 -0.0000 0.0000
# 19 texture coords

o Box001
g Box001
usemtl wire_196088225
s 1
f 1/1/1 2/2/2 3/3/3 
f 4/4/4 5/5/5 3/6/3 
f 6/4/6 7/5/7 3/3/3 
f 2/7/2 8/8/8 3/6/3 
f 3/9/3 9/10/9 1/11/1 
f 3/6/3 10/12/10 6/13/6 
f 8/8/8 11/14/11 3/6/3 
f 11/14/11 12/15/12 3/6/3 
f 12/15/12 4/4/4 3/6/3 
f 3/9/3 13/16/13 9/10/9 
f 3/9/3 14/17/14 13/16/13 
f 3/3/3 7/5/7 14/17/14 
f 3/6/3 15/18/15 10/12/10 
f 3/6/3 16/19/16 15/18/15 
f 3/6/3 5/5/5 16/19/16 
# 0 polygons - 15 triangles

